<mxfile host="app.diagrams.net" modified="2024-05-02T20:35:10.654Z" agent="Mozilla/5.0 (Windows NT 10.0; Win64; x64) AppleWebKit/537.36 (KHTML, like Gecko) Chrome/124.0.0.0 Safari/537.36 Edg/124.0.0.0" etag="W5441vqX90l5QBhTL0cB" version="24.3.1" type="google">
  <diagram name="PÃ¡gina-1" id="oTpTglFYp84BRfO-RVRh">
    <mxGraphModel grid="1" page="1" gridSize="10" guides="1" tooltips="1" connect="1" arrows="1" fold="1" pageScale="1" pageWidth="827" pageHeight="1169" math="0" shadow="0">
      <root>
        <mxCell id="0" />
        <mxCell id="1" parent="0" />
        <mxCell id="fBxusLIgJ8OgUPI1X05N-3" value="" style="edgeStyle=orthogonalEdgeStyle;rounded=0;orthogonalLoop=1;jettySize=auto;html=1;" edge="1" parent="1" source="fBxusLIgJ8OgUPI1X05N-1" target="fBxusLIgJ8OgUPI1X05N-2">
          <mxGeometry relative="1" as="geometry" />
        </mxCell>
        <mxCell id="fBxusLIgJ8OgUPI1X05N-1" value="INICIO" style="ellipse;whiteSpace=wrap;html=1;" vertex="1" parent="1">
          <mxGeometry x="220" y="189.99999999999997" width="120" height="80" as="geometry" />
        </mxCell>
        <mxCell id="fBxusLIgJ8OgUPI1X05N-5" value="" style="edgeStyle=orthogonalEdgeStyle;rounded=0;orthogonalLoop=1;jettySize=auto;html=1;" edge="1" parent="1" source="fBxusLIgJ8OgUPI1X05N-2" target="fBxusLIgJ8OgUPI1X05N-4">
          <mxGeometry relative="1" as="geometry" />
        </mxCell>
        <mxCell id="fBxusLIgJ8OgUPI1X05N-2" value="Declarando r" style="whiteSpace=wrap;html=1;" vertex="1" parent="1">
          <mxGeometry x="220" y="300" width="120" height="60" as="geometry" />
        </mxCell>
        <mxCell id="fBxusLIgJ8OgUPI1X05N-7" value="" style="edgeStyle=orthogonalEdgeStyle;rounded=0;orthogonalLoop=1;jettySize=auto;html=1;" edge="1" parent="1" source="fBxusLIgJ8OgUPI1X05N-4" target="fBxusLIgJ8OgUPI1X05N-6">
          <mxGeometry relative="1" as="geometry" />
        </mxCell>
        <mxCell id="fBxusLIgJ8OgUPI1X05N-4" value="INPUT r" style="shape=parallelogram;perimeter=parallelogramPerimeter;whiteSpace=wrap;html=1;fixedSize=1;" vertex="1" parent="1">
          <mxGeometry x="232" y="400" width="96" height="40" as="geometry" />
        </mxCell>
        <mxCell id="fBxusLIgJ8OgUPI1X05N-10" value="" style="edgeStyle=orthogonalEdgeStyle;rounded=0;orthogonalLoop=1;jettySize=auto;html=1;" edge="1" parent="1" source="fBxusLIgJ8OgUPI1X05N-6">
          <mxGeometry relative="1" as="geometry">
            <mxPoint x="366" y="530" as="targetPoint" />
          </mxGeometry>
        </mxCell>
        <mxCell id="fBxusLIgJ8OgUPI1X05N-14" value="" style="edgeStyle=orthogonalEdgeStyle;rounded=0;orthogonalLoop=1;jettySize=auto;html=1;" edge="1" parent="1" source="fBxusLIgJ8OgUPI1X05N-6" target="fBxusLIgJ8OgUPI1X05N-13">
          <mxGeometry relative="1" as="geometry" />
        </mxCell>
        <mxCell id="fBxusLIgJ8OgUPI1X05N-6" value="r &amp;gt;=0" style="rhombus;whiteSpace=wrap;html=1;" vertex="1" parent="1">
          <mxGeometry x="240" y="490" width="80" height="80" as="geometry" />
        </mxCell>
        <mxCell id="fBxusLIgJ8OgUPI1X05N-8" value="SI" style="text;html=1;align=center;verticalAlign=middle;resizable=0;points=[];autosize=1;strokeColor=none;fillColor=none;" vertex="1" parent="1">
          <mxGeometry x="311" y="488" width="30" height="30" as="geometry" />
        </mxCell>
        <mxCell id="fBxusLIgJ8OgUPI1X05N-21" value="" style="edgeStyle=orthogonalEdgeStyle;rounded=0;orthogonalLoop=1;jettySize=auto;html=1;" edge="1" parent="1" target="fBxusLIgJ8OgUPI1X05N-20">
          <mxGeometry relative="1" as="geometry">
            <mxPoint x="462" y="530" as="sourcePoint" />
          </mxGeometry>
        </mxCell>
        <mxCell id="fBxusLIgJ8OgUPI1X05N-16" value="" style="edgeStyle=orthogonalEdgeStyle;rounded=0;orthogonalLoop=1;jettySize=auto;html=1;" edge="1" parent="1" source="fBxusLIgJ8OgUPI1X05N-13">
          <mxGeometry relative="1" as="geometry">
            <mxPoint x="380" y="690" as="targetPoint" />
          </mxGeometry>
        </mxCell>
        <mxCell id="fBxusLIgJ8OgUPI1X05N-19" value="" style="edgeStyle=orthogonalEdgeStyle;rounded=0;orthogonalLoop=1;jettySize=auto;html=1;" edge="1" parent="1" source="fBxusLIgJ8OgUPI1X05N-13" target="fBxusLIgJ8OgUPI1X05N-18">
          <mxGeometry relative="1" as="geometry" />
        </mxCell>
        <mxCell id="fBxusLIgJ8OgUPI1X05N-13" value="r&amp;nbsp; &amp;lt; 0" style="rhombus;whiteSpace=wrap;html=1;" vertex="1" parent="1">
          <mxGeometry x="240" y="650" width="80" height="80" as="geometry" />
        </mxCell>
        <mxCell id="fBxusLIgJ8OgUPI1X05N-23" value="" style="edgeStyle=orthogonalEdgeStyle;rounded=0;orthogonalLoop=1;jettySize=auto;html=1;" edge="1" parent="1" target="fBxusLIgJ8OgUPI1X05N-22">
          <mxGeometry relative="1" as="geometry">
            <mxPoint x="500" y="690" as="sourcePoint" />
          </mxGeometry>
        </mxCell>
        <mxCell id="fBxusLIgJ8OgUPI1X05N-17" value="SI" style="text;html=1;align=center;verticalAlign=middle;resizable=0;points=[];autosize=1;strokeColor=none;fillColor=none;" vertex="1" parent="1">
          <mxGeometry x="311" y="650" width="30" height="30" as="geometry" />
        </mxCell>
        <mxCell id="fBxusLIgJ8OgUPI1X05N-18" value="FIN" style="ellipse;whiteSpace=wrap;html=1;" vertex="1" parent="1">
          <mxGeometry x="240" y="770" width="80" height="80" as="geometry" />
        </mxCell>
        <mxCell id="fBxusLIgJ8OgUPI1X05N-20" value="FIN" style="ellipse;whiteSpace=wrap;html=1;" vertex="1" parent="1">
          <mxGeometry x="500" y="490" width="80" height="80" as="geometry" />
        </mxCell>
        <mxCell id="fBxusLIgJ8OgUPI1X05N-22" value="FIN" style="ellipse;whiteSpace=wrap;html=1;" vertex="1" parent="1">
          <mxGeometry x="570" y="650" width="80" height="80" as="geometry" />
        </mxCell>
        <mxCell id="fBxusLIgJ8OgUPI1X05N-24" value="NO" style="text;html=1;align=center;verticalAlign=middle;resizable=0;points=[];autosize=1;strokeColor=none;fillColor=none;" vertex="1" parent="1">
          <mxGeometry x="290" y="568" width="40" height="30" as="geometry" />
        </mxCell>
        <mxCell id="fBxusLIgJ8OgUPI1X05N-25" value="NO" style="text;html=1;align=center;verticalAlign=middle;resizable=0;points=[];autosize=1;strokeColor=none;fillColor=none;" vertex="1" parent="1">
          <mxGeometry x="290" y="730" width="40" height="30" as="geometry" />
        </mxCell>
        <mxCell id="lZa4WJpC6_1iaRDesKwf-1" value="OUTPUT&amp;nbsp;&lt;div&gt;4 * 3.14 * (r * r)&lt;/div&gt;" style="shape=parallelogram;perimeter=parallelogramPerimeter;whiteSpace=wrap;html=1;fixedSize=1;" vertex="1" parent="1">
          <mxGeometry x="360" y="500" width="120" height="60" as="geometry" />
        </mxCell>
        <mxCell id="lZa4WJpC6_1iaRDesKwf-2" value="OUTPUT &quot;&lt;span style=&quot;background-color: initial;&quot;&gt;Error: Radius cannot be negative.&quot;&lt;/span&gt;" style="shape=parallelogram;perimeter=parallelogramPerimeter;whiteSpace=wrap;html=1;fixedSize=1;" vertex="1" parent="1">
          <mxGeometry x="370" y="660" width="160" height="60" as="geometry" />
        </mxCell>
      </root>
    </mxGraphModel>
  </diagram>
</mxfile>
